<svg xmlns="http://www.w3.org/2000/svg" width="672" height="165" viewBox="0 0 672 165">
    <defs>
        <linearGradient id="a" x1="-5.757%" x2="80.387%" y1="49.985%" y2="49.985%">
            <stop offset="0%" stop-color="#0090D6"/>
            <stop offset="100%"/>
        </linearGradient>
        <linearGradient id="b" x1="23.37%" x2="109.53%" y1="50.023%" y2="50.023%">
            <stop offset="0%" stop-color="#0090D6"/>
            <stop offset="100%"/>
        </linearGradient>
    </defs>
    <g fill="none" fill-rule="nonzero">
        <path fill="url(#a)" d="M196.361 71.478l-59.129-59.105c-2.8-2.798-6.607-4.477-10.75-4.477-4.032 0-7.84 1.567-10.751 4.477l-7.615 7.612 5.935 5.933 7.615-7.612c1.232-1.231 2.912-1.903 4.704-1.903 1.791 0 3.471.672 4.815 1.903l59.129 59.104c2.575 2.575 2.575 6.94 0 9.515l-59.13 59.105c-2.575 2.574-6.942 2.574-9.518 0L62.537 86.925c-2.575-2.574-2.575-6.94 0-9.515l38.86-38.843-5.936-5.933-38.859 38.844c-2.8 2.798-4.48 6.604-4.48 10.746 0 4.03 1.568 7.836 4.48 10.746l59.129 59.105c2.8 2.798 6.607 4.477 10.75 4.477 4.032 0 7.84-1.567 10.751-4.477l59.129-59.105c2.8-2.798 4.48-6.604 4.48-10.746 0-4.03-1.568-7.836-4.48-10.746z"/>
        <path fill="url(#b)" d="M87.846 146.142c-2.575 2.574-6.943 2.574-9.519 0L19.2 86.925c-2.576-2.574-2.576-6.94 0-9.515l59.128-59.104c1.232-1.231 2.912-1.903 4.816-1.903 1.792 0 3.471.672 4.815 1.903l59.129 59.104c2.576 2.575 2.576 6.94 0 9.515l-38.523 38.508 5.935 5.933 38.523-38.508c2.8-2.798 4.48-6.604 4.48-10.746 0-4.03-1.568-7.836-4.48-10.746l-59.24-58.993c-2.8-2.798-6.608-4.477-10.751-4.477-4.032 0-7.84 1.567-10.75 4.477L13.262 71.478c-5.935 5.932-5.935 15.56 0 21.38l59.13 59.105c2.799 2.798 6.606 4.477 10.75 4.477 4.031 0 7.839-1.567 10.75-4.477l7.28-7.276-5.936-5.933-7.39 7.388z"/>
        <path fill="#000" d="M234.212 53.567c0-13.992 11.31-25.298 25.31-25.298 6.718 0 12.878 2.686 17.47 7.052l-4.256 4.254c-3.472-3.247-8.063-5.374-13.215-5.374-10.75 0-19.15 8.62-19.15 19.478 0 10.746 8.512 19.478 19.15 19.478 5.264 0 10.079-2.24 13.55-5.597l4.256 4.141c-4.591 4.478-10.863 7.277-17.806 7.277-13.998-.112-25.309-11.418-25.309-25.41zm73.575-24.403h4.928l19.71 48.806h-6.384l-3.248-8.06h-25.308l-3.248 8.06h-6.271l19.821-48.806zm-8.175 35.373h20.942L310.25 38.791l-10.639 25.746zm43.451 6.717l4.144-4.478c3.023 3.47 7.95 6.269 12.99 6.269 5.935 0 9.743-3.47 9.743-8.06 0-3.358-1.792-6.604-7.055-8.731l-5.824-2.351c-6.83-2.687-10.526-6.493-10.526-12.65 0-7.163 5.935-12.649 13.886-12.649 6.16 0 10.415 1.903 13.998 5.374l-3.695 4.59c-2.8-2.8-6.048-4.367-10.303-4.367-4.592 0-8.063 2.687-8.063 6.829 0 3.022 1.68 5.261 6.831 7.276l6.047 2.463c7.503 3.022 10.527 7.835 10.527 13.768 0 8.172-6.16 13.993-15.902 13.993-6.383.112-12.766-3.023-16.798-7.276zm44.683-42.09h38.41v5.71h-16.125V77.97h-6.047V34.873h-16.126v-5.709h-.112zm52.521 0h6.047V77.97h-6.047V29.164zm25.085 0h3.808l28.556 36.269V29.164h6.047V77.97h-3.695l-28.669-36.269v36.381h-6.047V29.164zm90.037 21.717h15.454v2.91c-.336 14.664-11.87 25.075-25.309 25.075-14.446 0-25.533-11.53-25.533-25.299 0-13.88 11.087-25.298 25.533-25.298 7.503 0 14.11 3.134 18.926 8.283l-4.256 4.142c-3.695-4.142-8.846-6.604-14.558-6.604-11.198 0-19.373 8.73-19.373 19.477 0 10.634 8.287 19.478 19.373 19.478 9.631 0 17.582-6.493 19.15-16.68H555.5v-5.484h-.112zM234.212 97h3.808l28.556 36.269V97h6.048v48.806h-3.696l-28.78-36.38v36.38h-5.936V97zm63.497 26.754v16.567h21.837v5.373H291.66V97h27.549v5.485h-21.501v15.896h20.605v5.485h-20.605v-.112zM332.2 97h38.412v5.709h-16.126v43.097h-6.048v-43.097h-16.126V97h-.112zm49.946 0h6.271l12.543 38.62L413.39 97h6.384l12.094 38.955L444.971 97h5.935l-16.462 48.806h-5.264l-12.542-39.85-13.214 39.85h-5.152L382.146 97zm78.167 24.291c0-13.992 11.422-25.298 25.309-25.298 13.998 0 25.42 11.306 25.42 25.298 0 13.993-11.422 25.299-25.42 25.299-13.999.111-25.31-11.194-25.31-25.299zm44.57 0c0-10.746-8.623-19.478-19.261-19.478-10.751 0-19.15 8.62-19.15 19.478 0 10.746 8.51 19.478 19.15 19.478 10.75 0 19.261-8.62 19.261-19.478zM528.513 97h18.365c8.623 0 15.454 5.933 15.454 14.664 0 8.396-6.271 14.105-14.558 14.552l15.118 19.478h-7.055l-15.006-19.59h-6.16v19.702h-6.047V97h-.112zm6.159 5.373v18.806h11.534c5.823 0 10.079-3.694 10.079-9.515 0-5.261-4.256-9.29-10.079-9.29h-11.534zM580.81 97h5.935v23.955L608.023 97h7.727l-17.246 19.366 17.694 29.44h-7.056l-14.894-24.85-7.615 8.507v16.343h-5.935V97h.112zm48.49 41.978l4.143-4.478c3.024 3.47 7.952 6.269 12.99 6.269 5.936 0 9.744-3.47 9.744-8.06 0-3.358-1.792-6.605-7.055-8.731l-5.824-2.351c-6.83-2.687-10.526-6.493-10.526-12.65 0-7.164 5.935-12.649 13.886-12.649 6.16 0 10.415 1.903 13.998 5.373l-3.695 4.59c-2.8-2.798-6.048-4.366-10.303-4.366-4.592 0-8.063 2.687-8.063 6.829 0 3.022 1.68 5.26 6.831 7.276l6.047 2.463c7.503 3.022 10.527 7.835 10.527 13.768 0 8.172-6.16 13.993-15.902 13.993-6.383.112-12.766-2.91-16.798-7.276z"/>
    </g>
</svg>
